<svg id="Layer_1" data-name="Layer 1" xmlns="http://www.w3.org/2000/svg" xmlns:xlink="http://www.w3.org/1999/xlink" viewBox="0 0 257 257"><defs><style>.cls-1{fill:#65c8d0;}.cls-1,.cls-2,.cls-3,.cls-4,.cls-5{stroke:#000;stroke-miterlimit:10;}.cls-2,.cls-3,.cls-8{fill:#fff;}.cls-2{opacity:0.75;}.cls-4,.cls-5{fill:aqua;}.cls-5{opacity:0.51;}.cls-6{font-size:12px;fill:blue;letter-spacing:-0.02em;}.cls-6,.cls-8{font-family:MyriadPro-Regular, Myriad Pro;}.cls-7{letter-spacing:0em;}.cls-8{font-size:47.76px;}.cls-9{letter-spacing:0em;}.cls-10{letter-spacing:-0.01em;}.cls-11{letter-spacing:-0.01em;}.cls-12{letter-spacing:0em;}.cls-13{letter-spacing:0em;}.cls-14{letter-spacing:-0.01em;}.cls-15{letter-spacing:-0.01em;}</style></defs><title>icon</title><polygon class="cls-1" points="0.5 0.5 256.5 0.5 256.5 256.5 0.5 256.5 0.5 19.2 0.5 0.5"/><rect class="cls-2" x="5.59" y="53.07" width="81.19" height="81.19"/><rect class="cls-2" x="169.78" y="53.07" width="81.19" height="81.19"/><rect class="cls-3" x="75.7" y="38.52" width="105.6" height="105.6"/><path class="cls-4" d="M392.15,106.7" transform="translate(0.5 0.5)"/><image width="2652" height="2304" transform="translate(90.64 58.3) scale(0.03 0.03)" xlink:href="../../../../projects/photography/imgs/logo.png"/><rect class="cls-5" x="75.7" y="38.52" width="105.6" height="105.6"/><rect class="cls-3" x="100.28" y="76.73" width="62.3" height="23.06" rx="11.09"/><text class="cls-6" transform="translate(119.97 92.56)">V<tspan class="cls-7" x="6.5" y="0">isit</tspan></text><text class="cls-8" transform="translate(3.88 197.56) scale(0.28 1)">SP Clie<tspan class="cls-9" x="133.16" y="0">n</tspan><tspan x="159.48" y="0">ts </tspan><tspan class="cls-10" x="204.33" y="0">C</tspan><tspan x="231.69" y="0">a</tspan><tspan class="cls-11" x="254.72" y="0">r</tspan><tspan class="cls-12" x="269.86" y="0">ousel – Clie</tspan><tspan class="cls-13" x="494.72" y="0">n</tspan><tspan x="521.04" y="0">t Sh</tspan><tspan class="cls-14" x="597.03" y="0">o</tspan><tspan class="cls-15" x="622.91" y="0">w</tspan><tspan x="657.59" y="0">case Slider</tspan></text></svg>